<svg width="45" height="30" viewBox="0 0 45 30" fill="none" xmlns="http://www.w3.org/2000/svg">
<mask id="path-1-inside-1_40_112" fill="white">
<path d="M0 0.519341H44.9612V29.4807H0V0.519341Z"/>
</mask>
<path d="M43.9612 0.519341V29.4807H45.9612V0.519341H43.9612Z" fill="white" fill-opacity="0.08" mask="url(#path-1-inside-1_40_112)"/>
<path d="M22.3792 2.86103L22.3791 14.9441C22.3492 10.6076 18.8245 7.10143 14.4808 7.10143C10.1186 7.10143 6.58235 10.6377 6.58235 14.9999L6.58209 29.4805H0L1.56819e-06 14.9999C3.12406e-05 7.00249 6.48346 0.519341 14.4808 0.519341C17.3948 0.519341 20.1076 1.38002 22.3792 2.86103Z" fill="#FBF8F7"/>
<path d="M22.3791 14.9999C22.3791 19.3621 18.843 22.8984 14.4808 22.8984C10.1289 22.8984 6.59899 19.3788 6.58237 15.0308L6.58237 27.1387C8.85391 28.6198 11.5668 29.4805 14.4808 29.4805C22.4782 29.4805 28.9614 22.9973 28.9614 14.9999L28.9612 0.519341L22.3791 0.519341L22.3791 14.9999Z" fill="#69A3CC"/>
</svg>
